Coordinates
version=1
nRows=14
nColumns=24
inDegrees=yes

Units are S.I. units (second, meters, Newtons, ...)
If the header above contains a line with 'inDegrees', this indicates whether rotational values are in degrees (yes) or radians (no).

endheader
time	pelvis_tilt	pelvis_list	pelvis_rotation	pelvis_tx	pelvis_ty	pelvis_tz	hip_flexion_r	hip_adduction_r	hip_rotation_r	knee_angle_r	ankle_angle_r	subtalar_angle_r	mtp_angle_r	hip_flexion_l	hip_adduction_l	hip_rotation_l	knee_angle_l	ankle_angle_l	subtalar_angle_l	mtp_angle_l	lumbar_extension	lumbar_bending	lumbar_rotation
      4.63000000	     11.03614258	      1.33625982	   -180.39843551	      0.28706043	      0.80039474	     -1.22068904	     37.29332022	    -17.24992753	    -25.57504201	    -44.13385483	     11.72443029	      7.50366345	      0.00000000	     37.63236808	    -21.85139499	    -21.54850632	    -43.01337118	     10.35793385	     10.78611895	      0.00000000	     -4.14470272	      1.94829888	      1.77083504
      4.63500000	     10.97584653	      1.29481632	   -180.41039200	      0.28628035	      0.80304037	     -1.22063182	     36.68536543	    -17.07970273	    -25.75955269	    -43.14457815	     11.27073685	      7.53513418	      0.00000000	     36.98664306	    -21.58355292	    -21.70329429	    -42.03194831	      9.91654408	     10.70046884	      0.00000000	     -4.07337687	      1.88956218	      1.73343942
      4.64000000	     10.93076597	      1.30320095	   -180.41996218	      0.28550745	      0.80557345	     -1.22053368	     36.07789961	    -16.86063729	    -25.94623186	    -42.13392387	     10.83401229	      7.61409962	      0.00000000	     36.39333347	    -21.36118975	    -21.80959879	    -41.08684593	      9.46713847	     10.54598771	      0.00000000	     -3.96151678	      1.93173357	      1.64679175
      4.64500000	     10.95076821	      1.32724106	   -180.50834691	      0.28465068	      0.80808141	     -1.22029555	     35.55997144	    -16.58977849	    -26.06888241	    -41.11827350	     10.37007314	      7.66591863	      0.00000000	     35.82965022	    -21.18266543	    -21.98269330	    -40.12866065	      9.03701396	     10.40477228	      0.00000000	     -3.78230554	      2.00825407	      1.67552756
      4.65000000	     10.92455090	      1.33975518	   -180.54384033	      0.28377089	      0.81058076	     -1.22010902	     34.98638558	    -16.36481880	    -26.25989855	    -40.13072583	      9.92204180	      7.68707477	      0.00000000	     35.22879187	    -20.97562838	    -22.13643479	    -39.15731522	      8.57969358	     10.27820730	      0.00000000	     -3.65211819	      2.01776160	      1.71714491
      4.65500000	     10.82617446	      1.32821334	   -180.56202969	      0.28299428	      0.81294969	     -1.22005861	     34.36847989	    -16.16337940	    -26.41786284	    -39.19389306	      9.52099877	      7.71328325	      0.00000000	     34.58046261	    -20.74966910	    -22.27438378	    -38.22183110	      8.16708894	     10.15680968	      0.00000000	     -3.61629023	      1.98811913	      1.75003899
      4.66000000	     10.78793425	      1.32260170	   -180.60039824	      0.28222792	      0.81521936	     -1.21998154	     33.79909380	    -15.92933020	    -26.51826999	    -38.19968914	      9.09490594	      7.75467351	      0.00000000	     34.00268519	    -20.53907453	    -22.41246202	    -37.30451917	      7.75917646	     10.04702076	      0.00000000	     -3.50043627	      2.02199582	      1.66688849
      4.66500000	     10.79624035	      1.36136374	   -180.65800862	      0.28136672	      0.81737803	     -1.21982284	     33.25861381	    -15.64685615	    -26.62038969	    -37.18152966	      8.65006785	      7.84369432	      0.00000000	     33.47941569	    -20.37180281	    -22.53986890	    -36.41114713	      7.39653439	      9.91240615	      0.00000000	     -3.31816289	      2.08967303	      1.68824696
      4.67000000	     10.73689232	      1.34507424	   -180.66814336	      0.28062833	      0.81947677	     -1.21979929	     32.69623078	    -15.43310252	    -26.70585151	    -36.24485624	      8.25212545	      7.82260520	      0.00000000	     32.89941419	    -20.14560857	    -22.66750315	    -35.50988638	      6.98010940	      9.76989603	      0.00000000	     -3.23848198	      2.06487105	      1.65808910
      4.67500000	     10.79642841	      1.39227727	   -180.73789916	      0.27972118	      0.82149225	     -1.21956340	     32.23918596	    -15.16134114	    -26.84089758	    -35.27863144	      7.79131221	      7.87559215	      0.00000000	     32.42168813	    -19.99870073	    -22.83824817	    -34.61169202	      6.56661906	      9.66493579	      0.00000000	     -2.99148264	      2.12960724	      1.76707140
      4.68000000	     10.81082734	      1.43258850	   -180.82287532	      0.27895824	      0.82333904	     -1.21938277	     31.78433637	    -14.88042079	    -26.90141877	    -34.37481116	      7.37065585	      7.86456774	      0.00000000	     31.93134048	    -19.86390227	    -22.99672821	    -33.77230151	      6.22195872	      9.53434902	      0.00000000	     -2.83686027	      2.18617629	      1.89148279
      4.68500000	     10.75278325	      1.43741170	   -180.84922211	      0.27816042	      0.82526085	     -1.21930458	     31.22648145	    -14.63207148	    -26.97056917	    -33.43426759	      6.95115446	      7.74525335	      0.00000000	     31.35882048	    -19.65985668	    -23.10214439	    -32.89236165	      5.85985731	      9.37689508	      0.00000000	     -2.73038398	      2.24521495	      1.75539278
      4.69000000	     10.75673539	      1.44271585	   -180.87987564	      0.27739666	      0.82702354	     -1.21921262	     30.73575528	    -14.37766184	    -26.97377717	    -32.48568224	      6.52051656	      7.71276612	      0.00000000	     30.87012990	    -19.47094426	    -23.22916995	    -32.04545956	      5.49419130	      9.25480239	      0.00000000	     -2.57785765	      2.24422312	      1.75900903
      4.69500000	     10.69803023	      1.42374147	   -180.87126230	      0.27669784	      0.82867907	     -1.21916431	     30.22050572	    -14.19517735	    -27.07308037	    -31.64053122	      6.12732952	      7.66684225	      0.00000000	     30.35134423	    -19.26437857	    -23.36272002	    -31.24372716	      5.13590939	      9.16857072	      0.00000000	     -2.49413599	      2.23370042	      1.66039597
